<svg xmlns="http://www.w3.org/2000/svg" viewBox="0 0 29.5 16" role="img" aria-labelledby="title">
  <title id="title">V7 Labs logo mark</title>
  <path d="M17.606 16 23.515 4.258c.015-.03.022-.062.02-.095a.21.21 0 0 0-.03-.092.204.204 0 0 0-.072-.067.2.2 0 0 0-.096-.024h-6.688a.397.397 0 0 0-.356.218l-5.398 10.713a1.99 1.99 0 0 1-.731.792 2.01 2.01 0 0 1-1.05.293 2.01 2.01 0 0 1-1.051-.293 1.99 1.99 0 0 1-.731-.792L0 0h4.413l4.521 9.283a.2.2 0 0 0 .178.109.2.2 0 0 0 .178-.109l4.088-8.192c.162-.327.416-.602.731-.795A2.02 2.02 0 0 1 15.16 0h11.627c.285-.002.566.053.827.164.261.111.495.274.687.478.263.287.433.643.488 1.024.055.381-.008.77-.181 1.116L22.018 16Z" fill="currentColor"/>
</svg>
